<svg xmlns="http://www.w3.org/2000/svg" viewBox="0 0 108.16 29.19"><defs><style>.cls-1{fill:#111;}</style></defs><title>logo</title><g id="Ebene_2" data-name="Ebene 2"><g id="Ebene_1-2" data-name="Ebene 1"><path class="cls-1" d="M104.94,20.23a3,3,0,0,0,1.67-.48,3.25,3.25,0,0,0,1.14-1.27,3.43,3.43,0,0,0,.41-1.66,2.71,2.71,0,0,0-.34-1.35,12.57,12.57,0,0,0-1-1.49,8.62,8.62,0,0,1-.68-1,1.46,1.46,0,0,1-.22-.69,3,3,0,0,1,.38-1.27,3.22,3.22,0,0,0,.23-.55,1.32,1.32,0,0,0,.08-.39.34.34,0,0,0-.23-.34,2.17,2.17,0,0,0-.81-.1,1.61,1.61,0,0,0-1.66.92c-.41,1-.75,1.72-1,2.28a13.37,13.37,0,0,1-.76,1.44,25.84,25.84,0,0,1-1.74,2.34l-.27.34a1.17,1.17,0,0,0-.3.77.88.88,0,0,0,.21.6.69.69,0,0,0,.55.24,1.11,1.11,0,0,0,.79-.38,14.32,14.32,0,0,0,1.39-1.54,13.56,13.56,0,0,0,1.29-2,9.63,9.63,0,0,1,.63.78,4.94,4.94,0,0,1,.55.93,2.55,2.55,0,0,1,.24,1l-.55-.08a5.42,5.42,0,0,0-.64,0,1.55,1.55,0,0,0-1.17.4,1.26,1.26,0,0,0-.4.94,1.47,1.47,0,0,0,.58,1.13A2.46,2.46,0,0,0,104.94,20.23ZM93.31,27.16a.49.49,0,0,1-.45-.23,1.17,1.17,0,0,1-.14-.59,3.79,3.79,0,0,1,.72-2,12.3,12.3,0,0,1,2.34-2.48,18.13,18.13,0,0,1-1.3,4C94.05,26.75,93.66,27.16,93.31,27.16ZM99.08,9.92a1.65,1.65,0,0,0-1,.27,1.69,1.69,0,0,0-.52.9,25.75,25.75,0,0,1-1,3.14,9.12,9.12,0,0,1-1,1.9q-.46.63-.78.63c-.29,0-.44-.27-.44-.8a7.75,7.75,0,0,1,.13-1.28c.08-.53.18-1.07.29-1.65.08-.41.19-.88.33-1.4a7.58,7.58,0,0,0,.23-1.13.57.57,0,0,0-.17-.44,1.1,1.1,0,0,0-.64-.14,2,2,0,0,0-1.19.27,1.69,1.69,0,0,0-.59.9A18.05,18.05,0,0,0,92,13.86a18.19,18.19,0,0,0-.21,2.88,3.72,3.72,0,0,0,.6,2.16,1.79,1.79,0,0,0,1.53.87A2.2,2.2,0,0,0,95.48,19a5.31,5.31,0,0,0,1.18-2.29c-.13,1-.24,1.7-.34,2.21l-.06.48a27.56,27.56,0,0,0-3.46,3.05,9,9,0,0,0-1.68,2.35,5,5,0,0,0-.45,2,2.35,2.35,0,0,0,.67,1.73,2.38,2.38,0,0,0,1.74.66q2.25,0,3.62-3.14a34.32,34.32,0,0,0,2.13-8.52L99.4,14c.36-2,.54-3.24.54-3.58a.47.47,0,0,0-.19-.42A1.32,1.32,0,0,0,99.08,9.92ZM85.25,17.66a.9.9,0,0,1-.72-.32,1.51,1.51,0,0,1-.26-1,5.75,5.75,0,0,1,.44-2.22,4.54,4.54,0,0,1,1.18-1.68,2.51,2.51,0,0,1,1.62-.66l-.77,3.85a3.54,3.54,0,0,1-.61,1.44A1.14,1.14,0,0,1,85.25,17.66Zm-.75,2.11A3.18,3.18,0,0,0,87.24,18a2.89,2.89,0,0,0,.87,1.29,2,2,0,0,0,1.27.47A3.1,3.1,0,0,0,91.24,19a10.65,10.65,0,0,0,1.82-1.8,2,2,0,0,0,.4-1.3,1.35,1.35,0,0,0-.16-.69.49.49,0,0,0-.43-.25.76.76,0,0,0-.57.29A18.43,18.43,0,0,1,90.78,17a1.6,1.6,0,0,1-1,.51.48.48,0,0,1-.4-.19.72.72,0,0,1-.16-.5,20.42,20.42,0,0,1,.48-3.35A15.3,15.3,0,0,0,90,11.34c0-.49-.34-.73-1-.73a5.43,5.43,0,0,0-.92.08,1.57,1.57,0,0,0-.26-.64.82.82,0,0,0-.62-.18,4.7,4.7,0,0,0-2.73.91,6.64,6.64,0,0,0-2.06,2.41,6.75,6.75,0,0,0-.77,3.17,3.74,3.74,0,0,0,.77,2.47A2.55,2.55,0,0,0,84.5,19.77Zm-7.62.46a3,3,0,0,0,2-.71A5.8,5.8,0,0,0,81.23,19a6.49,6.49,0,0,0,2-1.77,2,2,0,0,0,.4-1.3,1.26,1.26,0,0,0-.16-.69A.46.46,0,0,0,83,15a.76.76,0,0,0-.57.29,6.71,6.71,0,0,1-2.4,2.12c0-.25,0-.45,0-.59a2.72,2.72,0,0,0-.35-1.35,13.62,13.62,0,0,0-1-1.49,6.56,6.56,0,0,1-.68-1,1.35,1.35,0,0,1-.22-.69,3,3,0,0,1,.37-1.27,2.58,2.58,0,0,0,.23-.55,1.43,1.43,0,0,0,.09-.39.35.35,0,0,0-.23-.34,2.26,2.26,0,0,0-.82-.1,1.59,1.59,0,0,0-1.65.92c-.31.72-.62,1.42-.94,2.1s-.6,1.22-.84,1.62a25.84,25.84,0,0,1-1.74,2.34l-.27.34a1.21,1.21,0,0,0-.29.77.88.88,0,0,0,.21.6.68.68,0,0,0,.54.24,1.14,1.14,0,0,0,.8-.38A16.8,16.8,0,0,0,74.7,16.7a15.35,15.35,0,0,0,1.29-2c.19.22.4.48.62.78a5,5,0,0,1,.56.93,2.93,2.93,0,0,1,.24,1l-.56-.08a5.27,5.27,0,0,0-.63,0,1.59,1.59,0,0,0-1.18.4,1.29,1.29,0,0,0-.39.94,1.49,1.49,0,0,0,.57,1.13A2.49,2.49,0,0,0,76.88,20.23ZM65.55,12.78h-.19a9.57,9.57,0,0,0,.23-1.5,1.42,1.42,0,0,0-.33-1,1.19,1.19,0,0,0-.93-.34,3,3,0,0,0-1.48.48A6.22,6.22,0,0,0,61.17,12a11.89,11.89,0,0,0-1.54,2.93,14.59,14.59,0,0,1,.2-1.55c.09-.42.2-.91.34-1.46a8,8,0,0,0,.31-1.51.43.43,0,0,0-.16-.4,1.22,1.22,0,0,0-.59-.1,2.13,2.13,0,0,0-1.2.28,1.57,1.57,0,0,0-.62.89,16.89,16.89,0,0,0-.77,5.17,7.89,7.89,0,0,0,.32,2.67,1.15,1.15,0,0,0,1.12.84,1.21,1.21,0,0,0,1-.33,3.25,3.25,0,0,0,.52-1.34,15.77,15.77,0,0,1,.82-2.43,10.94,10.94,0,0,1,1-1.85c.34-.47.6-.7.8-.7l.18.08a.37.37,0,0,1,.07.25,3.64,3.64,0,0,1,0,.46c0,.31,0,.6,0,.86a1.53,1.53,0,0,0,.41,1.13,1.32,1.32,0,0,0,1,.42,2.05,2.05,0,0,0,1.34-.52,3.62,3.62,0,0,0,.94-1.3,1.71,1.71,0,0,0,.13-.59,1.13,1.13,0,0,0-1.11-1.13ZM52.93,12a.78.78,0,0,1,.6.24.94.94,0,0,1,.22.64A1.76,1.76,0,0,1,53,14.21a4.76,4.76,0,0,1-1.95.87v0a4.23,4.23,0,0,1,.53-2.17A1.54,1.54,0,0,1,52.93,12Zm5.27,3a.73.73,0,0,0-.56.29A7.2,7.2,0,0,1,55.56,17a4.61,4.61,0,0,1-2.15.66,2.07,2.07,0,0,1-2-1,7.55,7.55,0,0,0,3.51-1.65,3.37,3.37,0,0,0,1-2.48,2.6,2.6,0,0,0-.73-1.95,2.64,2.64,0,0,0-1.94-.72,4.22,4.22,0,0,0-2.44.73,4.93,4.93,0,0,0-1.68,2,6,6,0,0,0-.61,2.68,4.37,4.37,0,0,0,1.21,3.27,4.69,4.69,0,0,0,3.41,1.19,6.09,6.09,0,0,0,3-.79,7.51,7.51,0,0,0,2.18-1.74,1.91,1.91,0,0,0,.4-1.3,1.26,1.26,0,0,0-.16-.69A.48.48,0,0,0,58.2,15ZM47.41,2.07c.39,0,.58.53.58,1.59a13.38,13.38,0,0,1-.88,4.49,26.44,26.44,0,0,1-2.36,4.9,32.19,32.19,0,0,1,.5-4.93,29.39,29.39,0,0,1,1.07-4.31C46.72,2.65,47.09,2.07,47.41,2.07ZM50,15a.73.73,0,0,0-.56.29A11.07,11.07,0,0,1,47.76,17a2.39,2.39,0,0,1-1.5.49,1.11,1.11,0,0,1-.88-.37,2.28,2.28,0,0,1-.48-1.22,32.28,32.28,0,0,0,3.74-6.51A15.23,15.23,0,0,0,50,3.6,5.15,5.15,0,0,0,49.45.93,1.78,1.78,0,0,0,47.87,0c-1.19,0-2.21.78-3.07,2.34A19.75,19.75,0,0,0,42.86,8a29.71,29.71,0,0,0-.66,5.82,9.13,9.13,0,0,0,.89,4.33,2.91,2.91,0,0,0,2.73,1.67,4.2,4.2,0,0,0,2.39-.71,9,9,0,0,0,2-1.82,2,2,0,0,0,.4-1.3,1.35,1.35,0,0,0-.16-.69A.48.48,0,0,0,50,15ZM40.52,2.07c.35,0,.53.43.53,1.28a13.65,13.65,0,0,1-.41,3.11,13.89,13.89,0,0,1-1.23,3.29,7.89,7.89,0,0,1-2,2.51c.25-1.69.56-3.32,1-4.9a27,27,0,0,1,1.17-3.82C39.91,2.56,40.25,2.07,40.52,2.07Zm-6.79,0c.12,0,.23.09.31.27a2.07,2.07,0,0,1,.12.8,11.68,11.68,0,0,1-.8,4A13.37,13.37,0,0,1,31,11.23c.24-1.59.53-3.08.86-4.49a24.16,24.16,0,0,1,1-3.39C33.18,2.5,33.47,2.07,33.73,2.07Zm8.91,11.74c-.14,0-.45,0-.92.08L41,14a12.92,12.92,0,0,1-1.3.06,1.84,1.84,0,0,0-1.34.59,2,2,0,0,0-.59,1.46,1.91,1.91,0,0,0,0,.46c.13.63.25,1.43.36,2.43a28.05,28.05,0,0,1,.17,3.11,5.35,5.35,0,0,1-.19,1.65c-.13.35-.3.53-.5.53s-.39-.76-.49-2.27S37,19,37,17.55c0-1,.05-2,.14-2.9a9.11,9.11,0,0,0,3.22-3,15.74,15.74,0,0,0,2-4.28,14.35,14.35,0,0,0,.69-4.12A4.36,4.36,0,0,0,42.5.88,1.72,1.72,0,0,0,41,0a3.59,3.59,0,0,0-2.81,1.88,17.61,17.61,0,0,0-2.22,5,39.22,39.22,0,0,0-1.31,6.54h-.79a2.93,2.93,0,0,0-1.91.61,1.8,1.8,0,0,0-.73,1.48,1.56,1.56,0,0,0,0,.44,24.82,24.82,0,0,1,.36,2.54,35.64,35.64,0,0,1,.16,3.63,5.05,5.05,0,0,1-.19,1.65c-.13.35-.29.53-.5.53s-.39-.76-.48-2.27-.15-3-.15-4.43A33.8,33.8,0,0,1,30.63,14,20,20,0,0,0,35,8.11,12.78,12.78,0,0,0,36.17,3,4,4,0,0,0,35.64.78,1.7,1.7,0,0,0,34.16,0C33,0,31.86.9,30.9,2.7a24.62,24.62,0,0,0-2.25,6.83,42.35,42.35,0,0,0-.8,8.17,24.41,24.41,0,0,0,.63,6.44c.43,1.43,1.14,2.14,2.15,2.14a2.25,2.25,0,0,0,1.95-1.2,6.39,6.39,0,0,0,.77-3.45c0-1.16,0-2.21-.12-3.16s-.18-1.93-.32-3l.92,0,.61,0c0,.75-.07,1.5-.07,2.24A24.33,24.33,0,0,0,35,24.14c.43,1.43,1.14,2.14,2.15,2.14a2.26,2.26,0,0,0,2-1.2,6.39,6.39,0,0,0,.77-3.45c0-.93-.05-1.87-.14-2.81a22,22,0,0,0-.37-2.52l1.18.06c1.78,0,2.67-.56,2.67-1.67C43.22,14.1,43,13.81,42.64,13.81Zm-17.26,6q1.8,0,3.87-2.53a2,2,0,0,0,.4-1.3,1.35,1.35,0,0,0-.16-.69.49.49,0,0,0-.43-.25.76.76,0,0,0-.57.29A18.22,18.22,0,0,1,27,17a1.63,1.63,0,0,1-.94.52.58.58,0,0,1-.57-.34,2.2,2.2,0,0,1-.17-1,18,18,0,0,1,.51-3.12,16.44,16.44,0,0,0,.39-2.42c0-.48-.35-.71-1.06-.71a1.61,1.61,0,0,0-1,.25,1.75,1.75,0,0,0-.5.92A22.76,22.76,0,0,0,23,13.84a15.64,15.64,0,0,0-.24,2.42,4.67,4.67,0,0,0,.62,2.55A2.18,2.18,0,0,0,25.38,19.77Zm.16-11.23A2.08,2.08,0,0,0,27,8a1.69,1.69,0,0,0,.54-1.32,1.28,1.28,0,0,0-.48-1.07,2,2,0,0,0-1.25-.38,2.18,2.18,0,0,0-1.44.49A1.56,1.56,0,0,0,23.79,7a1.45,1.45,0,0,0,.44,1.14A1.87,1.87,0,0,0,25.54,8.54ZM20.25,3.41c.31,0,.46.41.46,1.23a5.79,5.79,0,0,1-.61,2.42,7.15,7.15,0,0,1-1.86,2.4,31.13,31.13,0,0,1,.58-3.09,11.2,11.2,0,0,1,.73-2.18C19.81,3.67,20,3.41,20.25,3.41ZM23.91,15a.74.74,0,0,0-.56.29,13.21,13.21,0,0,1-1.63,1.64,2.51,2.51,0,0,1-1.59.54,1.73,1.73,0,0,1-1.62-.88A6.38,6.38,0,0,1,18,13.54c0-.39,0-.94,0-1.64h2.56c1.57,0,2.36-.48,2.36-1.44a.74.74,0,0,0-.15-.54.63.63,0,0,0-.48-.15H20A7.34,7.34,0,0,0,22.7,4.12a3.52,3.52,0,0,0-.5-1.94,1.57,1.57,0,0,0-1.38-.78,3,3,0,0,0-2.23,1.13,9.58,9.58,0,0,0-1.77,3,20.56,20.56,0,0,0-1.09,4.21H14.54c-.63,0-.94.39-.94,1.17a1,1,0,0,0,.22.73,1.15,1.15,0,0,0,.85.23h.81c0,.63-.06,1.25-.06,1.87q0,6,4.27,6a4.37,4.37,0,0,0,2.45-.71,9,9,0,0,0,2-1.82,1.91,1.91,0,0,0,.4-1.3,1.26,1.26,0,0,0-.16-.69A.48.48,0,0,0,23.91,15ZM6.13,19.83a8.47,8.47,0,0,0,5-1.33A4.36,4.36,0,0,0,13,14.71a3.54,3.54,0,0,0-.68-2.22,5.06,5.06,0,0,0-1.64-1.42A25.32,25.32,0,0,0,8.14,9.9c-.88-.35-1.56-.65-2.05-.9a4,4,0,0,1-1.23-.95,2,2,0,0,1-.49-1.36,2.14,2.14,0,0,1,1-1.85,4.85,4.85,0,0,1,2.76-.66,4.54,4.54,0,0,1,2.13.46A1.47,1.47,0,0,1,11.07,6c0,.12,0,.38-.07.8a4.15,4.15,0,0,0-.06.73,1,1,0,0,0,.37.8A1.38,1.38,0,0,0,13.39,8a4,4,0,0,0,.4-2A3.44,3.44,0,0,0,13,3.72a4.58,4.58,0,0,0-2-1.37,8.35,8.35,0,0,0-2.8-.45,9.07,9.07,0,0,0-3.57.65A5.22,5.22,0,0,0,2.29,4.37a4.6,4.6,0,0,0-.8,2.68,4,4,0,0,0,.72,2.42A5.36,5.36,0,0,0,3.94,11a22,22,0,0,0,2.63,1.2c.84.33,1.48.61,1.95.84a3.89,3.89,0,0,1,1.15.86,1.8,1.8,0,0,1,.46,1.23,2,2,0,0,1-1,1.79,5.23,5.23,0,0,1-2.78.63,6.25,6.25,0,0,1-2.67-.46,1.48,1.48,0,0,1-.95-1.4,3.15,3.15,0,0,1,0-.44,2.52,2.52,0,0,0,0-.29,3.85,3.85,0,0,0,.07-.73.94.94,0,0,0-.36-.76,1.43,1.43,0,0,0-.92-.29,1.29,1.29,0,0,0-1.17.61A3.15,3.15,0,0,0,0,15.54a3.58,3.58,0,0,0,1.67,3.24A8.32,8.32,0,0,0,6.13,19.83Z"/></g></g></svg>